<svg xmlns="http://www.w3.org/2000/svg" width="19.47" height="19" viewBox="0 0 19.47 19">
  <path id="Path_273" data-name="Path 273" d="M19,14v6a1.993,1.993,0,0,1-2,2H15a2,2,0,0,1-2-2V14a2,2,0,0,1,2-2h2a2,2,0,0,1,2,2m-4,0v6h2V14H15m-4,6a2,2,0,0,1-2,2H5V20H9V18H7V16H9V14H5V12H9a2,2,0,0,1,2,2v1.5A1.5,1.5,0,0,1,9.5,17,1.5,1.5,0,0,1,11,18.5V20M12.5,3a10.514,10.514,0,0,1,9.97,7.22L20.1,11A7.971,7.971,0,0,0,7.38,7.38L10,10H3V3L5.6,5.6A10.516,10.516,0,0,1,12.5,3Z" transform="translate(-3 -3)" fill="#e21274"/>
</svg>