<svg xmlns="http://www.w3.org/2000/svg" width="322.504" height="259.222" viewBox="0 0 322.504 259.222">
  <g id="Group_1449" data-name="Group 1449" transform="translate(-989 -1320.389)">
    <g id="Group_1447" data-name="Group 1447" transform="translate(1086.135 1320.389)">
      <g id="Group_1226" data-name="Group 1226" transform="translate(0)">
        <path id="Path_255" data-name="Path 255" d="M145.82,154.047v35.273h35.271V154.047H145.82Z" transform="translate(-38.251 -73.911)" fill="#fff"/>
        <path id="Path_256" data-name="Path 256" d="M125.694,137.757l-1.741,61.466,9.248,1.6q2.575-27.169,14.256-40.323c8.19-9.174,19.475-13.966,33.982-14.379V274.7c0,11.236-1.574,18.516-4.85,21.891q-4.176,4.3-14.138,5.283-2.944.236-10.075.241v9.843l85.994,0v-9.839q-7.128,0-10.08-.241-9.954-.982-14.138-5.283c-3.276-3.375-4.865-10.655-4.865-21.891V146.125c14.507.413,25.806,5.2,34,14.379q11.681,13.157,14.266,40.323l9.243-1.6-1.746-61.466Z" transform="translate(-123.953 -137.757)" fill="#fff"/>
        <path id="Path_257" data-name="Path 257" d="M159.227,154.047H123.953v35.273h35.274Z" transform="translate(-123.953 -73.911)" fill="#fff"/>
      </g>
    </g>
    <g id="Group_1448" data-name="Group 1448" transform="translate(954.742 1209.509)">
      <text id="Mobile_Cast" data-name="Mobile Cast" transform="translate(283.258 345.102)" fill="#fff" font-size="50" font-family="Helvetica, Arial, Calibri, sans-serif" letter-spacing="-0.01em"><tspan x="-248.17" y="0">Mobile</tspan><tspan y="0" font-size="10"> </tspan><tspan y="0">Cast</tspan></text>
      <path id="Path_270" data-name="Path 270" d="M48.149,17.363v4.12a3.679,3.679,0,0,1-7.358,0v-4.12a3.679,3.679,0,1,1,7.358,0M35.111,20.719v21.4a3.679,3.679,0,0,1-7.358,0v-21.4a3.679,3.679,0,0,1,7.358,0m25.753,8.653v4.12a3.679,3.679,0,0,1-7.358,0v-4.12a3.679,3.679,0,0,1,7.358,0m-51.506,0v4.12a3.679,3.679,0,0,1-7.358,0v-4.12a3.637,3.637,0,0,1,3.679-3.65,3.655,3.655,0,0,1,3.679,3.65M22.073,41.38v4.091a3.679,3.679,0,0,1-7.358,0V41.38a3.679,3.679,0,0,1,7.358,0M35.111,53.094v4.091a3.679,3.679,0,0,1-7.358,0V53.094a3.679,3.679,0,0,1,7.358,0m0-47.415V9.77a3.679,3.679,0,0,1-7.358,0V5.679a3.679,3.679,0,0,1,7.358,0M48.149,32.433V45.471a3.679,3.679,0,0,1-7.358,0V32.433a3.679,3.679,0,0,1,7.358,0M22.073,17.363V30.4a3.679,3.679,0,1,1-7.358,0V17.363a3.679,3.679,0,1,1,7.358,0Z" transform="translate(295.898 298.238)" fill="#fff"/>
    </g>
    <text id="Clips_Podcasting_platform" data-name="Clips Podcasting platform" transform="translate(990 1575.611)" fill="#fff" font-size="17" font-family="Helvetica, Arial, Calibri, sans-serif" letter-spacing="0.02em"><tspan x="0" y="0">Clips Podcasting platform</tspan></text>
  </g>
</svg>
