<svg xmlns="http://www.w3.org/2000/svg" width="317.054" height="68.941" viewBox="0 0 317.054 68.941">
  <g id="Group_1443" data-name="Group 1443" transform="translate(-954 -1134.53)">
    <g id="Group_1442" data-name="Group 1442" transform="translate(914.292 834.292)">
      <path id="Path_431" data-name="Path 431" d="M-213.74-36.74l-12.98,23.65h-.33l-13.035-23.65h-3.465V0h3.74V-28.16h.33l11.935,21.34h1.32l11.88-21.34h.33V0h3.795V-36.74ZM-192.895.66c6.93,0,11.11-5.28,11.11-13.585s-4.18-13.53-11.11-13.53c-6.875,0-11.11,5.225-11.11,13.53S-199.77.66-192.895.66Zm0-3.355c-4.9,0-7.37-3.8-7.37-10.23,0-6.38,2.475-10.23,7.37-10.23,4.95,0,7.425,3.85,7.425,10.23C-185.47-6.49-187.945-2.695-192.895-2.695Zm29.04-23.76a8.712,8.712,0,0,0-7.92,4.51h-.33V-36.74h-3.575V0h3.355V-4.29h.33a8.707,8.707,0,0,0,8.14,4.95c6.49,0,10.285-5.115,10.285-13.585C-153.57-21.34-157.365-26.455-163.855-26.455Zm-.825,23.76c-4.95,0-7.425-3.85-7.425-10.23,0-6.325,2.475-10.23,7.425-10.23,5.06,0,7.425,3.85,7.425,10.23C-157.255-6.49-159.62-2.695-164.68-2.695Zm17.215-28.545h3.575v-5.5h-3.575Zm0,31.24h3.575V-25.8h-3.575Zm14.685-5.06V-36.74h-3.63V-4.62c0,3.41,1.925,4.95,4.84,4.95a7.849,7.849,0,0,0,2.695-.5v-2.97a8.016,8.016,0,0,1-2.09.275C-132.12-2.86-132.78-3.63-132.78-5.06Zm28.215-8.36c0-8.14-4.125-13.035-10.505-13.035-6.71,0-10.78,5.06-10.78,13.53C-125.85-4.4-121.67.66-115.125.66c5.115,0,8.745-2.75,10.175-7.26h-3.795a6.392,6.392,0,0,1-6.38,4.07c-4.4,0-6.985-3.3-7.15-9.735h17.655A7.746,7.746,0,0,0-104.565-13.42Zm-10.505-9.845c4.07,0,6.545,2.75,6.93,8.03h-14.025C-121.67-20.515-119.25-23.265-115.07-23.265Zm20.855,4.9c0,11.77,5.39,19.03,14.63,19.03,6.875,0,11.99-4.455,13.2-11.715H-70.4c-1.1,5.17-4.62,8.03-9.185,8.03-6.82,0-10.67-5.61-10.67-15.345s3.85-15.345,10.67-15.345c4.565,0,8.085,2.86,9.185,8.03h4.015C-67.6-32.945-72.71-37.4-79.585-37.4-88.825-37.4-94.215-30.14-94.215-18.37Zm52.36,15.51c-.935,0-1.485-.66-1.485-1.76V-16.995c0-5.555-2.915-9.46-9.13-9.46-5.17,0-8.58,2.585-9.13,7.37h3.52c.44-2.75,2.31-4.29,5.555-4.29,4.235,0,5.61,2.7,5.61,6.27v1.32H-48.9c-8.69,0-13.475,3.025-13.475,8.8,0,4.565,2.64,7.48,7.59,7.48a8.881,8.881,0,0,0,7.755-4.18h.275A3.666,3.666,0,0,0-42.845.33a6.3,6.3,0,0,0,2.42-.5v-2.97A4.131,4.131,0,0,1-41.855-2.86Zm-12.265.385A4.419,4.419,0,0,1-58.905-7.15c0-3.905,3.52-5.665,10.01-5.665h1.98v1.87C-46.915-6.16-49.72-2.475-54.12-2.475ZM-28.49.66c5.06,0,8.8-3.025,8.8-7.48,0-4.18-2.695-6.325-6.655-7.37l-3.08-.77c-2.64-.715-3.96-1.87-3.96-4.125,0-2.42,1.98-4.29,5.06-4.29a4.74,4.74,0,0,1,5,4.29h3.52c-.55-4.51-3.8-7.37-8.525-7.37-5.225,0-8.58,3.3-8.58,7.425,0,4.235,2.53,6.16,6.1,7.095l3.08.825c2.09.605,4.455,1.43,4.455,4.455,0,2.53-2.2,4.235-5.225,4.235-3.3,0-5-1.65-5.555-4.18h-3.41C-36.9-2.255-33.77.66-28.49.66ZM-6.05.275A9.961,9.961,0,0,0-1.76-.55V-3.52a12.363,12.363,0,0,1-3.41.605c-2.145,0-3.41-1.265-3.41-4.015V-22.715h7.425V-25.8H-8.58V-34.32h-.825l-2.805,3.135v5.39h-5.005v3.08h5.005V-6.6C-12.21-2.09-9.79.275-6.05.275Z" transform="translate(283.258 345.102)" fill="#fff"/>
      <path id="Path_270" data-name="Path 270" d="M48.149,17.363v4.12a3.679,3.679,0,0,1-7.358,0v-4.12a3.679,3.679,0,1,1,7.358,0M35.111,20.719v21.4a3.679,3.679,0,0,1-7.358,0v-21.4a3.679,3.679,0,0,1,7.358,0m25.753,8.653v4.12a3.679,3.679,0,0,1-7.358,0v-4.12a3.679,3.679,0,0,1,7.358,0m-51.506,0v4.12a3.679,3.679,0,0,1-7.358,0v-4.12a3.637,3.637,0,0,1,3.679-3.65,3.655,3.655,0,0,1,3.679,3.65M22.073,41.38v4.091a3.679,3.679,0,0,1-7.358,0V41.38a3.679,3.679,0,0,1,7.358,0M35.111,53.094v4.091a3.679,3.679,0,0,1-7.358,0V53.094a3.679,3.679,0,0,1,7.358,0m0-47.415V9.77a3.679,3.679,0,0,1-7.358,0V5.679a3.679,3.679,0,0,1,7.358,0M48.149,32.433V45.471a3.679,3.679,0,0,1-7.358,0V32.433a3.679,3.679,0,0,1,7.358,0M22.073,17.363V30.4a3.679,3.679,0,1,1-7.358,0V17.363a3.679,3.679,0,1,1,7.358,0Z" transform="translate(295.898 298.238)" fill="#fff"/>
    </g>
    <path id="Path_432" data-name="Path 432" d="M.867-5.678C.867-2.04,2.533.2,5.389.2a4.023,4.023,0,0,0,4.08-3.621H8.228A2.838,2.838,0,0,1,5.389-.935c-2.108,0-3.3-1.734-3.3-4.743s1.19-4.743,3.3-4.743A2.838,2.838,0,0,1,8.228-7.939H9.469a4.023,4.023,0,0,0-4.08-3.621C2.533-11.56.867-9.316.867-5.678ZM12.8-1.564v-9.792H11.679v9.928A1.363,1.363,0,0,0,13.175.1a2.426,2.426,0,0,0,.833-.153V-.969a2.478,2.478,0,0,1-.646.085C13.005-.884,12.8-1.122,12.8-1.564ZM15.98-9.656h1.1v-1.7h-1.1ZM15.98,0h1.1V-7.973h-1.1ZM23.6-8.177a2.683,2.683,0,0,0-2.5,1.5H21V-7.973H19.958V2.975h1.1V-1.19h.085A2.711,2.711,0,0,0,23.6.2c2.023,0,3.2-1.581,3.2-4.2C26.792-6.6,25.619-8.177,23.6-8.177ZM23.341-.833c-1.513,0-2.278-1.173-2.278-3.162,0-1.972.765-3.162,2.278-3.162,1.564,0,2.312,1.19,2.312,3.162S24.905-.833,23.341-.833ZM31.4.2a2.441,2.441,0,0,0,2.72-2.312c0-1.292-.833-1.955-2.057-2.278l-.952-.238c-.816-.221-1.224-.578-1.224-1.275A1.4,1.4,0,0,1,31.45-7.225,1.465,1.465,0,0,1,33-5.9h1.088A2.485,2.485,0,0,0,31.45-8.177a2.4,2.4,0,0,0-2.652,2.3,2.138,2.138,0,0,0,1.887,2.193l.952.255c.646.187,1.377.442,1.377,1.377,0,.782-.68,1.309-1.615,1.309A1.563,1.563,0,0,1,29.682-2.04H28.628A2.521,2.521,0,0,0,31.4.2Zm12.665-11.56H40.375V0h1.156V-4.386h2.533a3.236,3.236,0,0,0,3.485-3.485A3.236,3.236,0,0,0,44.064-11.356Zm-.1,5.882H41.531v-4.794h2.431a2.2,2.2,0,0,1,2.38,2.4A2.2,2.2,0,0,1,43.962-5.474ZM52.479.2c2.142,0,3.434-1.632,3.434-4.2s-1.292-4.182-3.434-4.182c-2.125,0-3.434,1.615-3.434,4.182S50.354.2,52.479.2Zm0-1.037c-1.513,0-2.278-1.173-2.278-3.162,0-1.972.765-3.162,2.278-3.162,1.53,0,2.295,1.19,2.295,3.162C54.774-2.006,54.009-.833,52.479-.833ZM63.546-11.356v4.573h-.085a2.693,2.693,0,0,0-2.448-1.394c-2.023,0-3.2,1.581-3.2,4.182,0,2.618,1.173,4.2,3.2,4.2a2.667,2.667,0,0,0,2.5-1.53h.1V0h1.037V-11.356ZM61.251-.833c-1.547,0-2.295-1.173-2.295-3.162,0-1.972.748-3.162,2.295-3.162,1.53,0,2.295,1.207,2.295,3.162C63.546-2.023,62.781-.833,61.251-.833Zm5.8-3.162c0,2.6,1.275,4.2,3.366,4.2a3,3,0,0,0,3.111-2.652H72.386A1.875,1.875,0,0,1,70.414-.833c-1.445,0-2.227-1.156-2.227-3.162s.782-3.162,2.227-3.162a1.865,1.865,0,0,1,1.972,1.632h1.139a3,3,0,0,0-3.111-2.652C68.323-8.177,67.048-6.6,67.048-3.995ZM81.583-.884c-.289,0-.459-.2-.459-.544V-5.253A2.62,2.62,0,0,0,78.3-8.177,2.523,2.523,0,0,0,75.48-5.9h1.088a1.527,1.527,0,0,1,1.717-1.326c1.309,0,1.734.833,1.734,1.938v.408h-.612c-2.686,0-4.165.935-4.165,2.72A2.129,2.129,0,0,0,77.588.153a2.745,2.745,0,0,0,2.4-1.292h.085A1.133,1.133,0,0,0,81.277.1a1.948,1.948,0,0,0,.748-.153V-.969A1.277,1.277,0,0,1,81.583-.884Zm-3.791.119A1.366,1.366,0,0,1,76.313-2.21c0-1.207,1.088-1.751,3.094-1.751h.612v.578A2.345,2.345,0,0,1,77.792-.765ZM86.224.2a2.441,2.441,0,0,0,2.72-2.312c0-1.292-.833-1.955-2.057-2.278l-.952-.238c-.816-.221-1.224-.578-1.224-1.275a1.4,1.4,0,0,1,1.564-1.326A1.465,1.465,0,0,1,87.822-5.9H88.91a2.485,2.485,0,0,0-2.635-2.278,2.4,2.4,0,0,0-2.652,2.3A2.138,2.138,0,0,0,85.51-3.689l.952.255c.646.187,1.377.442,1.377,1.377,0,.782-.68,1.309-1.615,1.309A1.563,1.563,0,0,1,84.507-2.04H83.453A2.521,2.521,0,0,0,86.224.2ZM93.67.085A3.079,3.079,0,0,0,95-.17v-.918A3.821,3.821,0,0,1,93.942-.9c-.663,0-1.054-.391-1.054-1.241V-7.021h2.295v-.952H92.888v-2.635h-.255l-.867.969v1.666H90.219v.952h1.547V-2.04C91.766-.646,92.514.085,93.67.085Zm3.485-9.741h1.1v-1.7h-1.1Zm0,9.656h1.1V-7.973h-1.1Zm7.412-8.177a2.428,2.428,0,0,0-2.312,1.343h-.085V-7.973h-1.037V0h1.1V-4.42c0-1.683.7-2.737,2.04-2.737,1.258,0,1.683.816,1.683,1.955V0h1.105V-5.287C107.066-7,106.369-8.177,104.567-8.177Zm10.625.2v1.224h-.085a2.636,2.636,0,0,0-2.482-1.428c-2.04,0-3.23,1.564-3.23,4.012,0,2.465,1.19,4.029,3.23,4.029a2.687,2.687,0,0,0,2.414-1.292h.085V-.153a2.027,2.027,0,0,1-2.21,2.261c-1.156,0-1.8-.425-2.057-1.207H109.7a2.98,2.98,0,0,0,3.213,2.176,3.037,3.037,0,0,0,3.332-3.23v-7.82ZM112.846-1.19c-1.564,0-2.312-1.156-2.312-2.975,0-1.8.748-2.975,2.312-2.975,1.513,0,2.295,1.156,2.295,2.975S114.359-1.19,112.846-1.19ZM126.48-8.177a2.683,2.683,0,0,0-2.5,1.5h-.1V-7.973h-1.037V2.975h1.1V-1.19h.085A2.711,2.711,0,0,0,126.48.2c2.023,0,3.2-1.581,3.2-4.2C129.676-6.6,128.5-8.177,126.48-8.177Zm-.255,7.344c-1.513,0-2.278-1.173-2.278-3.162,0-1.972.765-3.162,2.278-3.162,1.564,0,2.312,1.19,2.312,3.162S127.789-.833,126.225-.833Zm6.919-.731v-9.792h-1.122v9.928a1.363,1.363,0,0,0,1.5,1.53,2.426,2.426,0,0,0,.833-.153V-.969a2.478,2.478,0,0,1-.646.085C133.348-.884,133.144-1.122,133.144-1.564Zm9.01.68c-.289,0-.459-.2-.459-.544V-5.253a2.62,2.62,0,0,0-2.822-2.924A2.523,2.523,0,0,0,136.051-5.9h1.088a1.527,1.527,0,0,1,1.717-1.326c1.309,0,1.734.833,1.734,1.938v.408h-.612c-2.686,0-4.165.935-4.165,2.72A2.129,2.129,0,0,0,138.159.153a2.745,2.745,0,0,0,2.4-1.292h.085A1.133,1.133,0,0,0,141.848.1a1.948,1.948,0,0,0,.748-.153V-.969A1.277,1.277,0,0,1,142.154-.884Zm-3.791.119a1.366,1.366,0,0,1-1.479-1.445c0-1.207,1.088-1.751,3.094-1.751h.612v.578A2.345,2.345,0,0,1,138.363-.765Zm8.551.85A3.079,3.079,0,0,0,148.24-.17v-.918a3.821,3.821,0,0,1-1.054.187c-.663,0-1.054-.391-1.054-1.241V-7.021h2.295v-.952h-2.295v-2.635h-.255l-.867.969v1.666h-1.547v.952h1.547V-2.04C145.01-.646,145.758.085,146.914.085Zm6.239-11.56a2.048,2.048,0,0,0-2.21,2.346v1.156H149.5v.952h1.445V0h1.1V-7.021h2.04v-.952h-2.04V-9.078c0-.85.272-1.394,1.326-1.394a3.441,3.441,0,0,1,.935.119v-.969A4.222,4.222,0,0,0,153.153-11.475ZM158.661.2c2.142,0,3.434-1.632,3.434-4.2s-1.292-4.182-3.434-4.182c-2.125,0-3.434,1.615-3.434,4.182S156.536.2,158.661.2Zm0-1.037c-1.513,0-2.278-1.173-2.278-3.162,0-1.972.765-3.162,2.278-3.162,1.53,0,2.295,1.19,2.295,3.162C160.956-2.006,160.191-.833,158.661-.833Zm9.061-7.242a2.253,2.253,0,0,0-2.108,1.292h-.085v-1.19h-1.037V0H165.6V-4.369c0-1.734.68-2.652,2.159-2.652a3.613,3.613,0,0,1,.561.034v-1.02A1.974,1.974,0,0,0,167.722-8.075Zm10.812-.1a2.486,2.486,0,0,0-2.448,1.462h-.1a2.152,2.152,0,0,0-2.278-1.462,2.428,2.428,0,0,0-2.312,1.343h-.085V-7.973h-1.037V0h1.105V-4.42c0-1.683.7-2.737,2.04-2.737,1.258,0,1.683.816,1.683,1.955V0h1.1V-4.42c0-1.853.7-2.737,2.057-2.737,1.241,0,1.683.816,1.683,1.955V0h1.1V-5.287C181.05-7,180.353-8.177,178.534-8.177Z" transform="translate(953.133 1200.394)" fill="#fff"/>
  </g>
</svg>